<svg xmlns="http://www.w3.org/2000/svg" xmlns:xlink="http://www.w3.org/1999/xlink"><symbol id="form__mail-m-icon" viewBox="0 0 17 13"><path d="M15.6 11.6H1.4V5.8H0V13h17V5.8h-1.4v5.8zM0 0v2.3l8.5 7.1L17 2.3V0H0zm15.6 1.6L8.5 7.5 1.4 1.6v-.2h14.2v.2z"/></symbol><symbol id="form__phone-m-icon" viewBox="0 0 20 20"><path d="M17.9 9.4H9.4v1.2h8.5l-2.1 2.1.9.9 3.1-3.1c.2-.2.2-.6 0-.9l-3.1-3.1-.9.9 2.1 2zM8.1 19.4v-6.2c0-.3-.3-.6-.6-.6H3.1c0 .7.6 1.2 1.2 1.2h2.5v5H3.1c-1 .1-1.8-.7-1.9-1.7v-14c0-1 .8-1.8 1.7-1.8H6.8v5H4.4c-.7 0-1.2.6-1.2 1.2h4.4c.3 0 .6-.3.6-.6V.6C8.1.3 7.8 0 7.5 0H3.1C1.5-.1.1 1.2 0 2.9V16.8c-.1 1.7 1.2 3.1 2.9 3.1H7.5c.3.1.6-.2.6-.5z"/></symbol><symbol id="header|footer__textLogo-m-icon" viewBox="0 0 100.5 18.1"><path class="st0" d="M1.2 16.6c-.8-1-1.2-2.5-1.2-4.4V5.9C0 4 .4 2.5 1.2 1.5 2 .5 3.4 0 5.4 0c1.9 0 3.2.4 4 1.3.8.9 1.2 2.1 1.2 3.8v1.5h-4V4.8c0-.7-.1-1.2-.2-1.6-.1-.3-.5-.5-1-.5s-1 .2-1.1.6c-.2.4-.3.9-.3 1.6v8.3c0 .7.1 1.2.3 1.6.2.4.5.6 1.1.6.5 0 .9-.2 1-.6.2-.4.2-.9.2-1.6v-1.8h3.9v1.5c0 1.6-.4 2.9-1.2 3.9-.8.9-2.1 1.4-4 1.4-1.9-.1-3.3-.6-4.1-1.6zM15.2.2h4.5L23 17.8h-3.6l-.6-3.7h-2.6l-.6 3.7h-3.7L15.2.2zm3.2 11.6l-.9-6.9-.9 6.9h1.8zM25.8 3.1h-2.7V.2h9.3v2.9h-2.7v14.7h-4V3.1zM39.5.2h6.9V2H42v5.8h3.6v1.7H42v6.4h4.5v1.8h-7V.2zM48.5.2h1.7l5.1 11.7V.2h2.1v17.6h-1.6l-5.1-12v12h-2.1V.2zM59.8.2h6.9V2h-4.4v5.8h3.6v1.7h-3.6v6.4h4.5v1.8h-7V.2zM68.8.2h3.6c1.8 0 3.1.4 4 1.1s1.3 1.9 1.3 3.6c0 2.3-.7 3.6-2.2 4.1l2.5 8.8h-2.4l-2.3-8.3h-1.9v8.3h-2.5V.2zm3.4 7.6c1.1 0 1.8-.2 2.3-.6.5-.4.7-1.2.7-2.3 0-.7-.1-1.3-.2-1.7s-.4-.7-.9-.9c-.4-.2-1-.3-1.7-.3h-1.1v5.8h.9zM80.8 16.5c-.7-1-1.1-2.5-1.1-4.5V6.2c0-1.4.1-2.5.4-3.4.3-.9.8-1.5 1.5-2s1.7-.7 2.9-.7c1.6 0 2.8.4 3.6 1.2.7.8 1.1 2.1 1.1 3.9v.7h-2.3v-.6c0-.8-.1-1.5-.2-1.9-.1-.5-.3-.8-.7-1-.3-.3-.8-.4-1.4-.4-.7 0-1.2.2-1.5.5-.3.3-.6.7-.7 1.2-.1.5-.1 1.2-.1 2.1v6.5c0 1.3.2 2.3.5 2.9.3.6 1 .9 1.9.9.9 0 1.6-.3 1.9-1 .3-.6.5-1.7.5-3.1v-1.2h-2.3V9.1h4.5v8.7h-1.6l-.2-2c-.6 1.5-1.6 2.2-3.2 2.2s-2.8-.5-3.5-1.5zM94.3 11.6L90.4.2h2.3l2.7 8.5L98.1.2h2.3l-3.8 11.4v6.2h-2.4v-6.2z"/></symbol><symbol id="html-academy-list__logo-m-icon" viewBox="0 0 45 36"><path d="M17.964 0L0 1.881v32.883l17.965 10.688 17.907-10.654.055-.032V1.882L18.16.022zM2.567 4.194L17.965 2.58l15.396 1.616V16.17h-.002L17.993 7.11l-.001-.138-.116.066-.117-.074v.145L2.567 16.157zm.145 13.967L17.873 9.05 33.231 18l-5.972 3.52-9.458-5.627-.018 1.885 7.872 4.684-1.147.677-6.707-3.99-.018 1.886 5.102 3.034-1.042.698-4.042-2.382-.018 1.884 2.47 1.453-2.4 1.441zm26.11 11.399l-.015-6.903 4.554-2.716v13.363l-15.397 9.161-15.397-9.161V20.169l15.214 9.056.022 1.392-10.59-6.304-.02 1.888 10.639 6.393.025 1.435-10.632-6.32-.017 1.885 10.695 6.43.062.031z"/></symbol><symbol id="offer__catPro-m-icon" viewBox="0 0 134 56"><path d="M123.1 5.8c1.2-1.9 2.7-3.4 4.5-4.6 1-.7 1.6-.7 2.2.6.8 1.9 1.5 3.9.9 6-.2.8-.1 1.4.4 2.1.6.8 1.1 1.6 1.6 2.3 1.3 1.9 1.8 3.9.9 6.2-.4 1-.4 2-.2 3.1.2 1 .2 2 0 3-.3 1.6-1.1 2.7-2.7 3.2-1.3.3-2.4.9-3.2 2-.2.3-.5.5-.9.5-1.2.2-4.2-2.5-4.2-3.7v-.6c.1-3.6-.1-3.9-3.4-5.4-.7-.3-1.3-.6-1.8-1.2-.6-.8-1.4-.7-2.3-.4-.8.4-1.4.9-1.3 1.9.3 2.4.4 4.8.3 7.3 0 .3.1.6.2.8 3.1 4.5 4.3 9.8 5.8 14.9 1.2 3.9 3.4 6 7.4 6.3.6 0 1.3.2 1.9.3 1.8.3 2.9 1.5 3.4 3.2.7 2.1.3 2.6-1.8 2.6h-6.5c-.9 0-1.6-.2-2.3-.8-1-1-2.2-1.4-3.4-2-1.3-.6-2.6-1.3-3.4-2.6-1.1-1.7-2.6-3.1-4-4.5-2.8-2.9-5.8-5.7-8.4-8.7-1.9-2.2-3.2-4.6-3.2-7.6 0-.9-.2-1.3-1.2-.9-.3.2-.7.3-1 .3-2.8 0-4.2 1.7-5.2 4.2-.9 2.1-2.1 4.1-3.2 6.2-.5 1.1-1 2.6-1 4.2 0 2.4.6 3.2 2.8 4 1.4.5 2.7 1 3.4 2.4.8 1.6.6 2-1.1 2.1h-6.8c-.9 0-1.5-.3-1.9-1.1l-1.8-3c-1-1.7-1.4-3.4-.7-5.4.6-1.7.3-3.6.1-5.3-.4-2.6 0-4.9 1.7-7 .6-.7.6-1-.4-1.2-4.1-.8-8-2.3-11.8-4.1 0 0-.1 0-.1-.1-3.2-1.2-3.8-1-4.7 2.3-.8 2.8-1.6 5.6-2.2 8.5-.7 3.2.1 6.2 1.1 9.2.4 1.2 1.6 1.1 2.5 1.4 2 .6 3.7 1.4 4.5 3.5.7 1.6.6 1.8-1.1 1.8-1.7 0-3.4-.1-5.2 0-1.6.1-2.8-.5-4.2-1.4-4.8-3.2-6.2-8.1-6.6-13.4-.2-3.3-2-5.9-4.1-8.4-.4-.5-.8-.7-1.4-.3-2.1 1.3-4.5 2.1-6.7 3-4.8 1.8-9 4.6-12.2 8.8-1.2 1.5-1.9 3.2-2.2 5.1-.3 1.8.2 2.6 2 3.1 1.9.6 2.7 1.5 2.9 3.4.1.8-.2 1.2-1 1.2h-8.1c-.6 0-1-.4-1.3-.8-1.3-1.6-1.9-3.5-1.9-5.5-.1-3.5.3-6.9.9-10.3.4-2.1 1.4-3.8 3.4-4.8 5.9-2.8 9-8.1 11.8-13.6.6-1.1.1-1.3-.9-1.2-2.9.3-5.4 1.6-7.7 3.2-3 2.1-5.7 4.6-8.3 7.1-2.9 2.7-6.2 4.6-10.3 4.9C3.1 32.5-.3 28.4 0 21.8c.1-2.3.9-4.4 2.4-6.1 1.2-1.3 2.6-2 4.5-1.5 1.5.4 1.9 1.2 1.3 2.7-.3.6-.7 1.1-1 1.7-.4.6-.8 1.3-1 2-1.1 3 .4 5.1 3.5 5.4 3.3.3 6-1.1 8.5-3.1 3-2.4 5.7-5.2 8-8.3 3.7-4.8 8.5-7.3 14.4-8.1 2.3-.3 4.3-1.3 6.5-1.9 4.1-1.2 8.3-1.9 12.7-1.8 2 .1 3.9-.3 5.8-1.1 4.9-2 10-2 15.1-1 4 .8 8 1.8 11.9 2.8 2.2.5 4.7.3 7-.2 4.4-1 8.9-1.9 13.4-2 3-.1 5.9.4 8.6 1.7 2 .9 2 .9 1.5 2.8z"/></symbol><symbol id="offer__catSlim-m-icon" viewBox="0 0 70 97"><path d="M54.8 0h-.4c-.7.4-1.1.9-1.4 1.6-.6 1.1-1 2.3-1.3 3.4-.2.8-.7 1.2-1.5 1.3-2.3.4-4 1.7-5.2 3.7-.7 1.3-1.3 2.6-1.8 3.9-1.4 3.7-2.5 7.5-3.8 11.2-.7 1.9-.8 1.9-2.7 1.9-2.3 0-2.1-.4-2.1 2.1 0 .8.2 1.2 1.1 1.2.3 0 .7-.1.8.2.1.3-.2.5-.4.7-1.2 1.3-2.7 2-4.3 2.4-1.9.5-3.8.9-5.7 1.5-4.7 1.6-9.1 3.8-12.6 7.6-2.1 2.3-3.5 5-4.7 7.8-3.8 8.7-5.6 17.8-7 27-.6 4.3-1.1 8.6-1.5 13C.2 92.7 0 94.8 0 97h33.3c.1-.5-.1-.9-.2-1.3-.7-1.8-2.1-2.7-3.8-3.1-.7-.2-.8-.4-.4-.9.7-.9 1.2-2 1.6-3.1 1.6-4.8 2.3-9.8 3.1-14.8.6-3.8 1.5-7.4 3.4-10.8 1.5-2.5 3.3-4.6 5.6-6.4.8-.6.9-.6 1 .4.1.7.1 1.4.2 2.2.3 4.7.3 9.5-.2 14.2-.3 3.7-.5 7.4-.2 11 .4 4.3 1.2 8.4 2.2 12.6h13.3c-.3-2.2-2.1-4-4.2-4.4-1.3-.2-2.5-.1-3.8.2-.6.1-.8 0-.9-.6-.4-5.3-.1-10.6 1-15.8 1.3-6 2.4-12.1 3.1-18.2.3-2.5 1-4.8 2.3-7 1.2-2.1 2.2-4.3 3.4-6.5.9-1.7 1.1-3.4.4-5.2-.3-.7-.5-1.4-.9-2.1-1-2-2-3.9-2.9-5.9-.5-1-.4-1.1.7-1.1 1.6 0 1.6 0 1.7-1.6v-.7c0-.7-.3-1.1-1-1h-1.5c-.7 0-.9-.3-.7-1 .6-2.3 2.8-4.1 5.1-4.4 2.2-.3 4.4 0 6.6.4.6.1 1 0 1.3-.6.4-1 .8-2 1.3-3 .2-.4.2-.8-.1-1.1-3.2-4.2-6.7-8-11.4-10.4-.5-.3-.8-.6-.9-1.1-.3-1.4-.7-2.8-1.3-4.2-.3-.7-.6-1.3-1.4-1.7z"/></symbol><symbol id="social-list__fb-m-icon" viewBox="0 0 10 19"><path d="M7.1 19H2v-8.8H0V5.8h1.9c-.1-2 .2-3.4 1.1-4.4C3.8.5 5 .1 6.5 0H10v4.2H7.2c-.1.2-.2.8-.2 1.6h3v4.4H7.1V19zm-4-1h2.8V9.1h2.9V6.8H5.9v-.5c0-1.4 0-2.6.7-3.1l.1-.1h2.1V1H6.5c-1.2.1-2 .4-2.6 1-.8.8-1 2.3-.8 4.2l.1.6H1.1v2.3h2V18z"/></symbol><symbol id="social-list__inst-m-icon" viewBox="0 0 16 16"><path d="M11.8 1C13.6 1 15 2.4 15 4.2v7.7c0 1.7-1.4 3.1-3.1 3.1H4.2C2.4 15 1 13.6 1 11.8V4.2C1 2.4 2.4 1 4.2 1h7.6m0-1H4.2C1.9 0 0 1.9 0 4.2v7.7C0 14.1 1.9 16 4.2 16h7.7c2.3 0 4.2-1.9 4.2-4.2V4.2C16 1.9 14.1 0 11.8 0z"/><path d="M8 4.9c1.7 0 3.1 1.4 3.1 3.1 0 1.7-1.4 3.1-3.1 3.1-1.7 0-3.1-1.4-3.1-3.1 0-1.7 1.4-3.1 3.1-3.1m0-1C5.7 3.9 3.9 5.7 3.9 8s1.8 4.1 4.1 4.1 4.1-1.8 4.1-4.1S10.3 3.9 8 3.9z"/><circle cx="12.3" cy="3.7" r=".9"/></symbol><symbol id="social-list__vk-m-icon" viewBox="0 0 22 12"><path d="M17.6 12c-.3 0-.9-.1-1.5-.5-.5-.3-.9-.7-1.3-1.2-.3-.3-.9-.9-1.1-.9-.2.1-.4.7-.3 1.2 0 .1 0 .6-.3.9-.3.3-.8.4-.9.4h-1.4c-.7 0-3.2-.2-5.4-2.3C2.5 7.1.2 2.2.1 2 0 1.6-.1 1.2.2.9c.3-.3.8-.4 1-.4h3.1c.1 0 .4.1.7.3.3.2.4.5.5.6 0 0 .5 1.1 1.1 2 1 1.5 1.4 1.9 1.5 2 .1-.4.2-1.4.1-2.3 0-.4-.1-.8-.2-1-.1-.1-.3-.2-.5-.2l-.6-.5c0-.5.5-.9.9-1.1.5-.2 1.3-.3 2.3-.3h.5c.9 0 1.2.1 1.6.1 1.2.3 1.2 1.3 1.1 2.5v1.6c0 .3 0 .8.1 1 .2-.1.6-.5 1.5-1.9.6-.9 1-1.9 1.1-2.1.1-.3.4-.7 1.2-.7h3.4c.7 0 1.2.2 1.3.7.2.5.1 1.3-1.7 3.5-.3.3-.5.6-.7.9-.5.4-.9 1-.9 1.1 0 .1.5.5.9.9 1.1.9 1.9 1.7 2.2 2.3.4.6.3 1 .2 1.3-.3.7-1.2.7-1.4.8h-2.8-.1zm-3.9-3.7c.7 0 1.2.6 1.8 1.2.4.4.7.8 1.1 1 .5.3 1 .3 1 .3h2.9c.1 0 .3-.1.4-.1 0 0 0-.1-.1-.1-.3-.5-1-1.3-2-2.1-.9-.7-1.3-1.1-1.4-1.7 0-.6.4-1.1 1.2-2.1.2-.2.4-.5.7-.8 1.1-1.4 1.4-2 1.5-2.3H16.9c0 .4-.5 1.5-1.1 2.4-1.4 2.1-2 2.4-2.5 2.4-.1 0-.3 0-.4-.1-.7-.4-.7-1.4-.7-2.1v-.3-1.3c.1-1.3 0-1.3-.3-1.4-.3-.1-.5-.1-1.4-.1H10c-.5 0-1 0-1.4.1l.2.2c.4.5.4 1.5.4 1.7.1 1.3 0 2.9-.7 3.3-.1 0-.2.1-.4.1-.6 0-1.3-.7-2.5-2.5C5 2.9 4.5 1.8 4.5 1.8s0-.1-.1-.1-.2-.1-.2-.1H1.3h-.1c.4.9 2.5 5 4.8 7.2 2 1.9 4.3 2 4.7 2h1.4s.2 0 .2-.1v-.1c0-.2 0-2 1.2-2.3h.2z"/></symbol></svg>